<?xml version="1.0" encoding="UTF-8" standalone="no"?>
<!-- Created with Inkscape (http://www.inkscape.org/) -->

<svg
   xmlns:dc="http://purl.org/dc/elements/1.1/"
   xmlns:cc="http://creativecommons.org/ns#"
   xmlns:rdf="http://www.w3.org/1999/02/22-rdf-syntax-ns#"
   xmlns:svg="http://www.w3.org/2000/svg"
   xmlns="http://www.w3.org/2000/svg"
   xmlns:sodipodi="http://sodipodi.sourceforge.net/DTD/sodipodi-0.dtd"
   xmlns:inkscape="http://www.inkscape.org/namespaces/inkscape"
   id="svg5230"
   version="1.1"
   inkscape:version="0.91 r13725"
   width="999"
   height="569.48499"
   xml:space="preserve"
   sodipodi:docname="Soundcloud.svg"><metadata
     id="metadata5236"><rdf:RDF><cc:Work
         rdf:about=""><dc:format>image/svg+xml</dc:format><dc:type
           rdf:resource="http://purl.org/dc/dcmitype/StillImage" /><dc:title></dc:title></cc:Work></rdf:RDF></metadata><defs
     id="defs5234"><clipPath
       clipPathUnits="userSpaceOnUse"
       id="clipPath8570"><path
         d="m 413.874,157.641 -17.903,0 0,-8.817 17.903,0 0,8.817 z"
         id="path8572"
         inkscape:connector-curvature="0" /></clipPath><clipPath
       clipPathUnits="userSpaceOnUse"
       id="clipPath8582"><path
         d="m 437.33,157.801 -18.9,0 0,-8.81 18.9,0 0,8.81 z"
         id="path8584"
         inkscape:connector-curvature="0" /></clipPath><clipPath
       clipPathUnits="userSpaceOnUse"
       id="clipPath8594"><path
         d="m 457.322,155.224 -18.753,0 0,-3.75 18.753,0 0,3.75 z"
         id="path8596"
         inkscape:connector-curvature="0" /></clipPath><clipPath
       clipPathUnits="userSpaceOnUse"
       id="clipPath8606"><path
         d="m 565.698,156.304 -18.354,0 0,-5.995 18.354,0 0,5.995 z"
         id="path8608"
         inkscape:connector-curvature="0" /></clipPath><clipPath
       clipPathUnits="userSpaceOnUse"
       id="clipPath8618"><path
         d="m 589.354,156.446 -18.244,0 0,-7.758 18.244,0 0,7.758 z"
         id="path8620"
         inkscape:connector-curvature="0" /></clipPath><clipPath
       clipPathUnits="userSpaceOnUse"
       id="clipPath8630"><path
         d="m 589.355,165.339 -18.286,0 0,-8.394 18.286,0 0,8.394 z"
         id="path8632"
         inkscape:connector-curvature="0" /></clipPath><clipPath
       clipPathUnits="userSpaceOnUse"
       id="clipPath8642"><path
         d="m 609.127,158.156 -17.534,0 0,-9.908 17.534,0 0,9.908 z"
         id="path8644"
         inkscape:connector-curvature="0" /></clipPath><clipPath
       clipPathUnits="userSpaceOnUse"
       id="clipPath8654"><path
         d="m 633.199,165.403 -18.789,0 0,-7.485 18.789,0 0,7.485 z"
         id="path8656"
         inkscape:connector-curvature="0" /></clipPath><clipPath
       clipPathUnits="userSpaceOnUse"
       id="clipPath8734"><path
         d="m 633.401,154.092 -18.858,0 0,-4.2719 18.858,0 0,4.2719 z"
         id="path8736"
         inkscape:connector-curvature="0" /></clipPath><clipPath
       clipPathUnits="userSpaceOnUse"
       id="clipPath9274"><path
         d="m 1045.67,433.766 6.96,-13.169 -16.45,-8.693 -6.97,13.172 16.46,8.69"
         id="path9276"
         inkscape:connector-curvature="0" /></clipPath><clipPath
       clipPathUnits="userSpaceOnUse"
       id="clipPath9280"><path
         d="m 1045.67,433.766 6.96,-13.169 -16.45,-8.693 -6.97,13.172 16.46,8.69"
         id="path9282"
         inkscape:connector-curvature="0" /></clipPath><clipPath
       clipPathUnits="userSpaceOnUse"
       id="clipPath9286"><path
         d="m 1045.67,433.768 6.96,-13.171 -16.45,-8.693 -6.97,13.172 16.46,8.692"
         id="path9288"
         inkscape:connector-curvature="0" /></clipPath><clipPath
       clipPathUnits="userSpaceOnUse"
       id="clipPath9292"><path
         d="m 1045.67,433.768 6.96,-13.171 -16.46,-8.693 -6.96,13.172 16.46,8.692"
         id="path9294"
         inkscape:connector-curvature="0" /></clipPath><linearGradient
       x1="0"
       y1="0"
       x2="1"
       y2="0"
       gradientUnits="userSpaceOnUse"
       gradientTransform="matrix(2.2585,-4.2732,4.2792,2.2602,1039.43,425.649)"
       spreadMethod="pad"
       id="linearGradient9304"><stop
         style="stop-opacity:1;stop-color:#ed1b2d"
         offset="0"
         id="stop9306" /><stop
         style="stop-opacity:1;stop-color:#ed1b2d"
         offset="1"
         id="stop9308" /></linearGradient><clipPath
       clipPathUnits="userSpaceOnUse"
       id="clipPath9344"><path
         d="m 1045.91,432.937 6.18,-11.9 -14.8,-7.686 -6.18,11.898 14.8,7.688"
         id="path9346"
         inkscape:connector-curvature="0" /></clipPath><clipPath
       clipPathUnits="userSpaceOnUse"
       id="clipPath9350"><path
         d="m 1045.91,432.936 6.18,-11.899 -14.8,-7.687 -6.18,11.899 14.8,7.687"
         id="path9352"
         inkscape:connector-curvature="0" /></clipPath><clipPath
       clipPathUnits="userSpaceOnUse"
       id="clipPath9356"><path
         d="m 1045.91,432.936 6.18,-11.899 -14.8,-7.687 -6.18,11.903 14.8,7.683"
         id="path9358"
         inkscape:connector-curvature="0" /></clipPath><clipPath
       clipPathUnits="userSpaceOnUse"
       id="clipPath9362"><path
         d="m 1045.91,432.936 6.18,-11.899 -14.8,-7.687 -6.18,11.903 14.8,7.683"
         id="path9364"
         inkscape:connector-curvature="0" /></clipPath><linearGradient
       x1="0"
       y1="0"
       x2="1"
       y2="0"
       gradientUnits="userSpaceOnUse"
       gradientTransform="matrix(2.7049,-5.2039,5.208,2.7036,1039.86,426.544)"
       spreadMethod="pad"
       id="linearGradient9374"><stop
         style="stop-opacity:1;stop-color:#ed1b2d"
         offset="0"
         id="stop9376" /><stop
         style="stop-opacity:1;stop-color:#ed1b2d"
         offset="1"
         id="stop9378" /></linearGradient><clipPath
       clipPathUnits="userSpaceOnUse"
       id="clipPath9410"><path
         d="m 1048.9,431.869 3.3,-4.058 -4.2,-3.413 -3.31,4.062 4.21,3.409"
         id="path9412"
         inkscape:connector-curvature="0" /></clipPath><clipPath
       clipPathUnits="userSpaceOnUse"
       id="clipPath9416"><path
         d="m 1048.9,431.869 3.3,-4.058 -4.2,-3.413 -3.31,4.062 4.21,3.409"
         id="path9418"
         inkscape:connector-curvature="0" /></clipPath><clipPath
       clipPathUnits="userSpaceOnUse"
       id="clipPath9422"><path
         d="m 1048.9,431.869 3.3,-4.058 -4.2,-3.413 -3.31,4.062 4.21,3.409"
         id="path9424"
         inkscape:connector-curvature="0" /></clipPath><clipPath
       clipPathUnits="userSpaceOnUse"
       id="clipPath9428"><path
         d="m 1048.9,431.869 3.3,-4.058 -4.2,-3.413 -3.31,4.062 4.21,3.409"
         id="path9430"
         inkscape:connector-curvature="0" /></clipPath><linearGradient
       x1="0"
       y1="0"
       x2="1"
       y2="0"
       gradientUnits="userSpaceOnUse"
       gradientTransform="matrix(1.4165,-1.7398,1.7421,1.413,1048.08,428.588)"
       spreadMethod="pad"
       id="linearGradient9440"><stop
         style="stop-opacity:1;stop-color:#4d74b9"
         offset="0"
         id="stop9442" /><stop
         style="stop-opacity:1;stop-color:#314b7d"
         offset="1"
         id="stop9444" /></linearGradient><clipPath
       clipPathUnits="userSpaceOnUse"
       id="clipPath9464"><path
         d="m 1033.38,423.46 1.15,-4.202 -5.59,-1.554 -1.16,4.205 5.6,1.551"
         id="path9466"
         inkscape:connector-curvature="0" /></clipPath><clipPath
       clipPathUnits="userSpaceOnUse"
       id="clipPath9470"><path
         d="m 1033.38,423.46 1.15,-4.202 -5.59,-1.554 -1.16,4.205 5.6,1.551"
         id="path9472"
         inkscape:connector-curvature="0" /></clipPath><clipPath
       clipPathUnits="userSpaceOnUse"
       id="clipPath9476"><path
         d="m 1033.38,423.46 1.16,-4.202 -5.6,-1.554 -1.16,4.205 5.6,1.551"
         id="path9478"
         inkscape:connector-curvature="0" /></clipPath><clipPath
       clipPathUnits="userSpaceOnUse"
       id="clipPath9482"><path
         d="m 1033.38,423.46 1.16,-4.202 -5.6,-1.554 -1.16,4.205 5.6,1.551"
         id="path9484"
         inkscape:connector-curvature="0" /></clipPath><linearGradient
       x1="0"
       y1="0"
       x2="1"
       y2="0"
       gradientUnits="userSpaceOnUse"
       gradientTransform="matrix(0.85515,-3.0989,3.0993,0.85883,1030.77,422.001)"
       spreadMethod="pad"
       id="linearGradient9494"><stop
         style="stop-opacity:1;stop-color:#ed1b2d"
         offset="0"
         id="stop9496" /><stop
         style="stop-opacity:1;stop-color:#ed1b2d"
         offset="1"
         id="stop9498" /></linearGradient><clipPath
       clipPathUnits="userSpaceOnUse"
       id="clipPath9510"><path
         d="m 1049.67,423.749 1.57,-4.004 -5.25,-2.058 -1.56,4 5.24,2.062"
         id="path9512"
         inkscape:connector-curvature="0" /></clipPath><clipPath
       clipPathUnits="userSpaceOnUse"
       id="clipPath9516"><path
         d="m 1049.67,423.749 1.57,-4.004 -5.25,-2.057 -1.56,4 5.24,2.061"
         id="path9518"
         inkscape:connector-curvature="0" /></clipPath><clipPath
       clipPathUnits="userSpaceOnUse"
       id="clipPath9522"><path
         d="m 1049.67,423.749 1.57,-4.004 -5.25,-2.057 -1.56,4 5.24,2.061"
         id="path9524"
         inkscape:connector-curvature="0" /></clipPath><clipPath
       clipPathUnits="userSpaceOnUse"
       id="clipPath9528"><path
         d="m 1049.67,423.749 1.57,-4.004 -5.25,-2.057 -1.56,4 5.24,2.061"
         id="path9530"
         inkscape:connector-curvature="0" /></clipPath><linearGradient
       x1="0"
       y1="0"
       x2="1"
       y2="0"
       gradientUnits="userSpaceOnUse"
       gradientTransform="matrix(0.67753,-1.7317,1.7326,0.68033,1047.6,421.345)"
       spreadMethod="pad"
       id="linearGradient9540"><stop
         style="stop-opacity:1;stop-color:#ed1b2d"
         offset="0"
         id="stop9542" /><stop
         style="stop-opacity:1;stop-color:#ed1b2d"
         offset="1"
         id="stop9544" /></linearGradient><clipPath
       clipPathUnits="userSpaceOnUse"
       id="clipPath9556"><path
         d="m 1049.16,423.453 1.62,-3.516 -4.64,-2.135 -1.62,3.514 4.64,2.137"
         id="path9558"
         inkscape:connector-curvature="0" /></clipPath><clipPath
       clipPathUnits="userSpaceOnUse"
       id="clipPath9562"><path
         d="m 1049.16,423.453 1.62,-3.515 -4.64,-2.136 -1.62,3.514 4.64,2.137"
         id="path9564"
         inkscape:connector-curvature="0" /></clipPath><clipPath
       clipPathUnits="userSpaceOnUse"
       id="clipPath9568"><path
         d="m 1049.16,423.453 1.62,-3.515 -4.64,-2.136 -1.62,3.515 4.64,2.136"
         id="path9570"
         inkscape:connector-curvature="0" /></clipPath><clipPath
       clipPathUnits="userSpaceOnUse"
       id="clipPath9574"><path
         d="m 1049.16,423.456 1.63,-3.518 -4.65,-2.136 -1.62,3.515 4.64,2.139"
         id="path9576"
         inkscape:connector-curvature="0" /></clipPath><linearGradient
       x1="0"
       y1="0"
       x2="1"
       y2="0"
       gradientUnits="userSpaceOnUse"
       gradientTransform="matrix(1.2309,-2.6682,2.6687,1.2281,1047,422.018)"
       spreadMethod="pad"
       id="linearGradient9586"><stop
         style="stop-opacity:1;stop-color:#ed1b2d"
         offset="0"
         id="stop9588" /><stop
         style="stop-opacity:1;stop-color:#ed1b2d"
         offset="1"
         id="stop9590" /></linearGradient><clipPath
       clipPathUnits="userSpaceOnUse"
       id="clipPath9654"><path
         d="m 1032.6,423.911 2.22,-4.124 -5.04,-2.708 -2.22,4.118 5.04,2.714"
         id="path9656"
         inkscape:connector-curvature="0" /></clipPath><clipPath
       clipPathUnits="userSpaceOnUse"
       id="clipPath9660"><path
         d="m 1032.6,423.911 2.22,-4.124 -5.04,-2.708 -2.22,4.118 5.04,2.714"
         id="path9662"
         inkscape:connector-curvature="0" /></clipPath><clipPath
       clipPathUnits="userSpaceOnUse"
       id="clipPath9666"><path
         d="m 1032.6,423.911 2.22,-4.124 -5.04,-2.708 -2.22,4.118 5.04,2.714"
         id="path9668"
         inkscape:connector-curvature="0" /></clipPath><clipPath
       clipPathUnits="userSpaceOnUse"
       id="clipPath9672"><path
         d="m 1032.6,423.911 2.22,-4.124 -5.04,-2.708 -2.22,4.118 5.04,2.714"
         id="path9674"
         inkscape:connector-curvature="0" /></clipPath><linearGradient
       x1="0"
       y1="0"
       x2="1"
       y2="0"
       gradientUnits="userSpaceOnUse"
       gradientTransform="matrix(1.6848,-3.1253,3.1318,1.6863,1030.26,422.185)"
       spreadMethod="pad"
       id="linearGradient9684"><stop
         style="stop-opacity:1;stop-color:#ed1b2d"
         offset="0"
         id="stop9686" /><stop
         style="stop-opacity:1;stop-color:#ed1b2d"
         offset="1"
         id="stop9688" /></linearGradient><clipPath
       clipPathUnits="userSpaceOnUse"
       id="clipPath9712"><path
         d="m 1030.17,420.458 0.01,3.007 3.11,-0.009 -0.01,-3.01 -3.11,0.012"
         id="path9714"
         inkscape:connector-curvature="0" /></clipPath><clipPath
       clipPathUnits="userSpaceOnUse"
       id="clipPath9718"><path
         d="m 1030.17,420.458 0.01,3.007 3.11,-0.009 -0.01,-3.01 -3.11,0.012"
         id="path9720"
         inkscape:connector-curvature="0" /></clipPath><clipPath
       clipPathUnits="userSpaceOnUse"
       id="clipPath9724"><path
         d="m 1030.17,420.458 0.01,3.007 3.11,-0.009 -0.01,-3.01 -3.11,0.012"
         id="path9726"
         inkscape:connector-curvature="0" /></clipPath><clipPath
       clipPathUnits="userSpaceOnUse"
       id="clipPath9730"><path
         d="m 1030.17,420.458 0.01,3.007 3.11,-0.009 -0.01,-3.01 -3.11,0.012"
         id="path9732"
         inkscape:connector-curvature="0" /></clipPath><linearGradient
       x1="0"
       y1="0"
       x2="1"
       y2="0"
       gradientUnits="userSpaceOnUse"
       gradientTransform="matrix(0.01032,3.1821,-3.1888,0.008815,1031.73,420.364)"
       spreadMethod="pad"
       id="linearGradient9742"><stop
         style="stop-opacity:1;stop-color:#636466"
         offset="0"
         id="stop9744" /><stop
         style="stop-opacity:1;stop-color:#231f20"
         offset="1"
         id="stop9746" /></linearGradient><clipPath
       clipPathUnits="userSpaceOnUse"
       id="clipPath9766"><path
         d="m 1047.84,420.807 0.01,2.745 2.75,-0.009 -0.01,-2.744 -2.75,0.008"
         id="path9768"
         inkscape:connector-curvature="0" /></clipPath><clipPath
       clipPathUnits="userSpaceOnUse"
       id="clipPath9772"><path
         d="m 1047.84,420.807 0.01,2.745 2.75,-0.009 -0.01,-2.744 -2.75,0.008"
         id="path9774"
         inkscape:connector-curvature="0" /></clipPath><clipPath
       clipPathUnits="userSpaceOnUse"
       id="clipPath9778"><path
         d="m 1047.84,420.807 0.01,2.745 2.75,-0.009 -0.01,-2.744 -2.75,0.008"
         id="path9780"
         inkscape:connector-curvature="0" /></clipPath><clipPath
       clipPathUnits="userSpaceOnUse"
       id="clipPath9784"><path
         d="m 1047.84,420.807 0.01,2.745 2.75,-0.009 -0.01,-2.744 -2.75,0.008"
         id="path9786"
         inkscape:connector-curvature="0" /></clipPath><linearGradient
       x1="0"
       y1="0"
       x2="1"
       y2="0"
       gradientUnits="userSpaceOnUse"
       gradientTransform="matrix(0.01032,2.7149,-2.714,0.008815,1049.23,420.71)"
       spreadMethod="pad"
       id="linearGradient9796"><stop
         style="stop-opacity:1;stop-color:#636466"
         offset="0"
         id="stop9798" /><stop
         style="stop-opacity:1;stop-color:#231f20"
         offset="1"
         id="stop9800" /></linearGradient><clipPath
       clipPathUnits="userSpaceOnUse"
       id="clipPath9860"><path
         d="m 1035.63,421.095 1,-1.927 -3.02,-1.571 -1,1.927 3.02,1.571"
         id="path9862"
         inkscape:connector-curvature="0" /></clipPath><clipPath
       clipPathUnits="userSpaceOnUse"
       id="clipPath9866"><path
         d="m 1035.63,421.095 1,-1.927 -3.02,-1.571 -1,1.927 3.02,1.571"
         id="path9868"
         inkscape:connector-curvature="0" /></clipPath><clipPath
       clipPathUnits="userSpaceOnUse"
       id="clipPath9872"><path
         d="m 1035.63,421.095 1,-1.927 -3.02,-1.571 -1,1.927 3.02,1.571"
         id="path9874"
         inkscape:connector-curvature="0" /></clipPath><clipPath
       clipPathUnits="userSpaceOnUse"
       id="clipPath9878"><path
         d="m 1035.63,421.095 1,-1.927 -3.02,-1.571 -1,1.927 3.02,1.571"
         id="path9880"
         inkscape:connector-curvature="0" /></clipPath><linearGradient
       x1="0"
       y1="0"
       x2="1"
       y2="0"
       gradientUnits="userSpaceOnUse"
       gradientTransform="matrix(2.7212,-5.2343,5.2347,2.7236,1032.85,422.883)"
       spreadMethod="pad"
       id="linearGradient9890"><stop
         style="stop-opacity:1;stop-color:#ed1b2d"
         offset="0"
         id="stop9892" /><stop
         style="stop-opacity:1;stop-color:#ed1b2d"
         offset="1"
         id="stop9894" /></linearGradient><clipPath
       clipPathUnits="userSpaceOnUse"
       id="clipPath9902"><path
         d="m 1033.84,421.062 0.68,-1.309 -1.54,-0.799 -0.68,1.309 1.54,0.799"
         id="path9904"
         inkscape:connector-curvature="0" /></clipPath><clipPath
       clipPathUnits="userSpaceOnUse"
       id="clipPath9908"><path
         d="m 1033.84,421.062 0.68,-1.309 -1.54,-0.799 -0.68,1.309 1.54,0.799"
         id="path9910"
         inkscape:connector-curvature="0" /></clipPath><clipPath
       clipPathUnits="userSpaceOnUse"
       id="clipPath9914"><path
         d="m 1033.84,421.062 0.68,-1.309 -1.54,-0.799 -0.68,1.309 1.54,0.799"
         id="path9916"
         inkscape:connector-curvature="0" /></clipPath><clipPath
       clipPathUnits="userSpaceOnUse"
       id="clipPath9920"><path
         d="m 1033.84,421.065 0.68,-1.312 -1.54,-0.799 -0.68,1.309 1.54,0.802"
         id="path9922"
         inkscape:connector-curvature="0" /></clipPath><linearGradient
       x1="0"
       y1="0"
       x2="1"
       y2="0"
       gradientUnits="userSpaceOnUse"
       gradientTransform="matrix(2.72,-5.2331,5.232,2.7187,1032.12,422.463)"
       spreadMethod="pad"
       id="linearGradient9932"><stop
         style="stop-opacity:1;stop-color:#ed1b2d"
         offset="0"
         id="stop9934" /><stop
         style="stop-opacity:1;stop-color:#ed1b2d"
         offset="1"
         id="stop9936" /></linearGradient><clipPath
       clipPathUnits="userSpaceOnUse"
       id="clipPath10512"><path
         d="m 241.471,463.996 -12.488,0 0,-10.286 12.488,0 0,10.286 z"
         id="path10514"
         inkscape:connector-curvature="0" /></clipPath><clipPath
       clipPathUnits="userSpaceOnUse"
       id="clipPath10612"><path
         d="m 241.678,480.87 -15.734,0 0,-10.831 15.734,0 0,10.831 z"
         id="path10614"
         inkscape:connector-curvature="0" /></clipPath><clipPath
       clipPathUnits="userSpaceOnUse"
       id="clipPath10624"><path
         d="m 232.069,445.27 12.238,0 0,-8.428 -12.238,0 0,8.428 z"
         id="path10626"
         inkscape:connector-curvature="0" /></clipPath><clipPath
       clipPathUnits="userSpaceOnUse"
       id="clipPath10636"><path
         d="m 196.309,362.597 -6.849,0 0,6.848 6.849,0 0,-6.848"
         id="path10638"
         inkscape:connector-curvature="0" /></clipPath><clipPath
       clipPathUnits="userSpaceOnUse"
       id="clipPath10648"><path
         d="m 196.309,300.898 -6.849,0 0,6.848 6.849,0 0,-6.848"
         id="path10650"
         inkscape:connector-curvature="0" /></clipPath><clipPath
       clipPathUnits="userSpaceOnUse"
       id="clipPath10660"><path
         d="m 200.953,361.086 -9.342,0 0,-8.196 9.342,0 0,8.196 z"
         id="path10662"
         inkscape:connector-curvature="0" /></clipPath><clipPath
       clipPathUnits="userSpaceOnUse"
       id="clipPath10672"><path
         d="m 264.499,225.803 -18.337,0 0,-5.371 18.337,0 0,5.371 z"
         id="path10674"
         inkscape:connector-curvature="0" /></clipPath><clipPath
       clipPathUnits="userSpaceOnUse"
       id="clipPath10684"><path
         d="m 227.129,534.689 -32.953,0 0,-9.996 32.953,0 0,9.996 z"
         id="path10686"
         inkscape:connector-curvature="0" /></clipPath><clipPath
       clipPathUnits="userSpaceOnUse"
       id="clipPath10696"><path
         d="m 192.838,379.879 9.04,0 0,-8.925 -9.04,0 0,8.925 z"
         id="path10698"
         inkscape:connector-curvature="0" /></clipPath><clipPath
       clipPathUnits="userSpaceOnUse"
       id="clipPath10708"><path
         d="m 192.838,379.993 9.04,0 0,-0.11401 -9.04,0 0,0.11401 z"
         id="path10710"
         inkscape:connector-curvature="0" /></clipPath><clipPath
       clipPathUnits="userSpaceOnUse"
       id="clipPath10720"><path
         d="m 219.979,327.014 -9.004,0 0,-9.219 9.004,0 0,9.219 z"
         id="path10722"
         inkscape:connector-curvature="0" /></clipPath><clipPath
       clipPathUnits="userSpaceOnUse"
       id="clipPath10732"><path
         d="m 191.347,317.508 -9.639,0 0,-7.541 9.639,0 0,7.541 z"
         id="path10734"
         inkscape:connector-curvature="0" /></clipPath><linearGradient
       x1="0"
       y1="0"
       x2="1"
       y2="0"
       gradientUnits="userSpaceOnUse"
       gradientTransform="matrix(0,-53.006302,-53.006302,0,109.15762,67.179016)"
       spreadMethod="pad"
       id="linearGradient27200"><stop
         style="stop-opacity:1;stop-color:#faa21b"
         offset="0"
         id="stop27202" /><stop
         style="stop-opacity:1;stop-color:#f15623"
         offset="1"
         id="stop27204" /></linearGradient></defs><sodipodi:namedview
     pagecolor="#ffffff"
     bordercolor="#666666"
     borderopacity="1"
     objecttolerance="10"
     gridtolerance="10"
     guidetolerance="10"
     inkscape:pageopacity="0"
     inkscape:pageshadow="2"
     inkscape:window-width="1680"
     inkscape:window-height="931"
     id="namedview5232"
     showgrid="false"
     showguides="true"
     inkscape:guide-bbox="true"
     fit-margin-left="0.5"
     fit-margin-bottom="0.5"
     fit-margin-top="0.5"
     fit-margin-right="0.5"
     inkscape:zoom="0.55638902"
     inkscape:cx="441.90205"
     inkscape:cy="105.15166"
     inkscape:window-x="0"
     inkscape:window-y="1"
     inkscape:window-maximized="1"
     inkscape:current-layer="g5238"><inkscape:grid
       type="xygrid"
       id="grid16791"
       empspacing="5"
       visible="true"
       enabled="true"
       snapvisiblegridlinesonly="true"
       originx="-2448.6946px"
       originy="-848.3076px" /></sodipodi:namedview><g
     id="g5238"
     inkscape:groupmode="layer"
     inkscape:label="TerminalGuideMap"
     transform="matrix(1.25,0,0,-1.25,-2448.6946,1417.7927)"><g
       id="g27188"
       transform="matrix(13.554723,0,0,13.554723,1766.8446,486.53504)"><g
         id="g27190"><g
           id="g27196"><g
             id="g27198"><path
               d="m 45.694,46.916 c -0.547,-0.211 -0.693,-0.429 -0.698,-0.852 l 0,0 0,-23.018 c 0.006,-0.443 0.35,-0.813 0.783,-0.857 l 0,0 c 0.019,-0.001 19.974,-0.011 20.103,-0.011 l 0,0 c 4.006,0 7.252,3.247 7.252,7.253 l 0,0 c 0,4.006 -3.246,7.252 -7.252,7.252 l 0,0 c -0.994,0 -1.941,-0.201 -2.805,-0.562 l 0,0 C 62.5,42.656 57.02,47.784 50.333,47.784 l 0,0 c -1.636,0 -3.23,-0.322 -4.639,-0.868 M 42.715,45.287 42.387,28.95 42.715,23.021 c 0.005,-0.433 0.364,-0.79 0.799,-0.79 l 0,0 c 0.434,0 0.792,0.357 0.798,0.796 l 0,0 0,-0.006 0.356,5.929 -0.356,16.339 c -0.006,0.437 -0.364,0.796 -0.798,0.796 l 0,0 c -0.435,0 -0.794,-0.359 -0.799,-0.798 M 40.289,43.931 40.008,28.957 c 0,-0.009 0.281,-6.021 0.281,-6.021 l 0,0 c 0.007,-0.407 0.342,-0.742 0.748,-0.742 l 0,0 c 0.406,0 0.741,0.335 0.749,0.745 l 0,0 0,-0.004 0,0.004 0.315,6.012 -0.315,14.981 c -0.007,0.41 -0.343,0.744 -0.749,0.744 l 0,0 c -0.406,0 -0.741,-0.334 -0.748,-0.745 m -7.254,-1.57 -0.371,-13.405 0.372,-6.155 c 0.008,-0.329 0.271,-0.59 0.597,-0.59 l 0,0 c 0.324,0 0.586,0.261 0.597,0.592 l 0,0 0,-0.002 0,0.002 0,10e-4 0.418,6.151 -0.418,13.406 c -0.01,0.334 -0.273,0.594 -0.597,0.594 l 0,0 c -0.326,0 -0.589,-0.26 -0.598,-0.594 m 2.399,-0.343 -0.341,-13.064 0.342,-6.095 c 0.007,-0.358 0.292,-0.642 0.648,-0.642 l 0,0 c 0.353,0 0.637,0.284 0.647,0.645 l 0,0 0,-0.004 0.384,6.096 -0.384,13.064 c -0.01,0.362 -0.294,0.645 -0.647,0.645 l 0,0 c -0.356,0 -0.641,-0.284 -0.649,-0.645 m -4.778,-0.093 -0.402,-12.969 0.402,-6.192 c 0.01,-0.302 0.25,-0.54 0.547,-0.54 l 0,0 c 0.295,0 0.535,0.237 0.547,0.542 l 0,0 0.453,6.19 -0.453,12.97 c -0.012,0.304 -0.252,0.542 -0.547,0.542 l 0,0 c -0.297,0 -0.537,-0.238 -0.547,-0.543 M 37.852,41.54 37.54,28.954 37.852,22.897 c 0.007,-0.386 0.315,-0.69 0.699,-0.69 l 0,0 c 0.383,0 0.688,0.304 0.697,0.694 l 0,0 0,-0.005 0.35,6.057 -0.35,12.588 c -0.009,0.389 -0.314,0.695 -0.697,0.695 l 0,0 c -0.384,0 -0.692,-0.306 -0.699,-0.696 m -9.557,-0.612 c 0,-10e-4 -0.431,-11.97 -0.431,-11.97 l 0,0 0.431,-6.257 c 0.012,-0.274 0.23,-0.49 0.497,-0.49 l 0,0 c 0.265,0 0.483,0.216 0.497,0.492 l 0,0 0.487,6.255 -0.487,11.97 c -0.014,0.276 -0.232,0.492 -0.497,0.492 l 0,0 c -0.267,0 -0.485,-0.216 -0.497,-0.492 m -2.342,-2.227 -0.461,-9.743 0.461,-6.295 c 0.012,-0.246 0.208,-0.44 0.446,-0.44 l 0,0 c 0.236,0 0.433,0.194 0.447,0.441 l 0,0 0,-0.002 0.522,6.296 -0.522,9.743 c -0.014,0.247 -0.211,0.442 -0.447,0.442 l 0,0 c -0.238,0 -0.434,-0.195 -0.446,-0.442 m -4.627,-3.285 -0.52,-6.455 0.52,-6.244 c 0.014,-0.194 0.163,-0.339 0.346,-0.339 l 0,0 c 0.181,0 0.329,0.145 0.346,0.339 l 0,0 0.59,6.244 -0.59,6.457 c -0.017,0.192 -0.165,0.339 -0.346,0.339 l 0,0 c -0.183,0 -0.332,-0.147 -0.346,-0.341 m -2.285,-0.17 c 0,-0.001 -0.551,-6.283 -0.551,-6.283 l 0,0 0.551,-6.053 c 0.016,-0.169 0.14,-0.29 0.296,-0.29 l 0,0 c 0.153,0 0.277,0.121 0.295,0.289 l 0,0 0.625,6.054 -0.624,6.283 c -0.019,0.167 -0.143,0.289 -0.296,0.289 l 0,0 c -0.156,0 -0.28,-0.123 -0.296,-0.289 m 4.589,-0.297 -0.49,-5.988 0.49,-6.296 c 0.014,-0.222 0.183,-0.391 0.396,-0.391 l 0,0 c 0.21,0 0.38,0.168 0.396,0.39 l 0,0 0.557,6.297 -0.557,5.991 c -0.016,0.22 -0.185,0.387 -0.396,0.387 l 0,0 c -0.213,0 -0.382,-0.167 -0.396,-0.39 m -6.855,-0.691 c 0,-0.001 -0.58,-5.294 -0.58,-5.294 l 0,0 0.58,-5.179 c 0.017,-0.138 0.121,-0.238 0.246,-0.238 l 0,0 c 0.123,0 0.224,0.097 0.244,0.237 l 0,0 0.659,5.18 -0.658,5.294 c -0.021,0.141 -0.122,0.238 -0.245,0.238 l 0,0 c -0.125,0 -0.229,-0.1 -0.246,-0.238 m -2.171,-2.02 -0.431,-3.274 0.431,-3.219 c 0.016,-0.136 0.114,-0.231 0.237,-0.231 l 0,0 c 0.119,0 0.216,0.095 0.235,0.23 l 0,0 0.511,3.22 -0.511,3.275 c -0.018,0.135 -0.116,0.229 -0.235,0.229 l 0,0 c -0.123,0 -0.221,-0.095 -0.237,-0.23 M 54.355,16.963 c 0,-1.647 0.873,-2.79 2.35,-2.79 l 0,0 c 1.476,0 2.35,1.143 2.35,2.79 l 0,0 c 0,1.647 -0.874,2.791 -2.35,2.791 l 0,0 c -1.477,0 -2.35,-1.144 -2.35,-2.791 m 1.113,0 c 0,0.967 0.363,1.717 1.237,1.717 l 0,0 c 0.872,0 1.236,-0.75 1.236,-1.717 l 0,0 c 0,-0.966 -0.364,-1.715 -1.236,-1.715 l 0,0 c -0.874,0 -1.237,0.749 -1.237,1.715 m -10.188,0 c 0,-1.708 0.95,-2.79 2.365,-2.79 l 0,0 c 0.983,0 1.632,0.456 2.003,1.222 l 0,0 -0.912,0.541 C 48.45,15.457 48.163,15.248 47.677,15.248 l 0,0 c -0.812,0 -1.285,0.742 -1.285,1.715 l 0,0 c 0,1.006 0.466,1.717 1.277,1.717 l 0,0 c 0.486,0 0.796,-0.216 0.99,-0.587 l 0,0 1.005,0.463 c -0.341,0.704 -0.96,1.198 -1.98,1.198 l 0,0 c -1.414,0 -2.404,-1.144 -2.404,-2.791 m -22.62,0 c 0,-1.647 0.873,-2.79 2.35,-2.79 l 0,0 c 1.476,0 2.35,1.143 2.35,2.79 l 0,0 c 0,1.647 -0.874,2.791 -2.35,2.791 l 0,0 c -1.477,0 -2.35,-1.144 -2.35,-2.791 m 1.113,0 c 0,0.967 0.363,1.717 1.237,1.717 l 0,0 c 0.874,0 1.237,-0.75 1.237,-1.717 l 0,0 c 0,-0.966 -0.363,-1.715 -1.237,-1.715 l 0,0 c -0.874,0 -1.237,0.749 -1.237,1.715 m -5.954,1.206 c 0,-1.066 0.697,-1.383 1.693,-1.615 l 0,0 c 1.021,-0.232 1.207,-0.387 1.207,-0.735 l 0,0 c 0,-0.41 -0.302,-0.587 -0.943,-0.587 l 0,0 c -0.519,0 -1.006,0.177 -1.385,0.619 l 0,0 -0.781,-0.696 c 0.41,-0.604 1.199,-0.982 2.103,-0.982 l 0,0 c 1.478,0 2.126,0.696 2.126,1.724 l 0,0 c 0,1.175 -0.951,1.468 -1.81,1.669 l 0,0 c -0.857,0.203 -1.089,0.31 -1.089,0.65 l 0,0 c 0,0.239 0.193,0.488 0.773,0.488 l 0,0 c 0.496,0 0.882,-0.202 1.23,-0.557 l 0,0 0.78,0.757 c -0.51,0.533 -1.128,0.85 -1.971,0.85 l 0,0 c -1.067,0 -1.933,-0.603 -1.933,-1.585 m 48.039,1.501 0,-5.412 1.616,0 c 1.392,0 2.767,0.803 2.767,2.705 l 0,0 c 0,1.98 -1.143,2.707 -2.69,2.707 l 0,0 -1.693,0 z m 1.082,-1.052 0.574,0 c 1.142,0 1.614,-0.549 1.614,-1.655 l 0,0 c 0,-0.989 -0.518,-1.654 -1.654,-1.654 l 0,0 -0.534,0 0,3.309 z m -3.517,1.052 0,-3.039 c 0,-0.866 -0.425,-1.399 -1.112,-1.399 l 0,0 c -0.69,0 -1.107,0.549 -1.107,1.414 l 0,0 0,3.024 -1.082,0 0,-3.039 c 0,-1.577 0.881,-2.458 2.189,-2.458 l 0,0 c 1.376,0 2.195,0.905 2.195,2.473 l 0,0 0,3.024 -1.083,0 z m -12.822,0 0,-5.412 3.252,0 0,1.067 -2.17,0 0,4.345 -1.082,0 z m -10.663,0 0,-5.412 1.615,0 c 1.392,0 2.768,0.803 2.768,2.705 l 0,0 c 0,1.98 -1.143,2.707 -2.69,2.707 l 0,0 -1.693,0 z m 1.082,-1.052 0.573,0 c 1.143,0 1.616,-0.549 1.616,-1.655 l 0,0 c 0,-0.989 -0.519,-1.654 -1.656,-1.654 l 0,0 -0.533,0 0,3.309 z m -3.54,1.052 0,-2.289 c 0,-0.302 0.015,-0.982 0.015,-1.183 l 0,0 c -0.07,0.14 -0.247,0.41 -0.378,0.611 l 0,0 -1.919,2.861 -1.035,0 0,-5.412 1.067,0 0,2.381 c 0,0.302 -0.016,0.981 -0.016,1.183 l 0,0 c 0.07,-0.139 0.248,-0.41 0.379,-0.611 l 0,0 1.986,-2.953 0.967,0 0,5.412 -1.066,0 z m -5.751,0 0,-3.039 c 0,-0.866 -0.427,-1.399 -1.114,-1.399 l 0,0 c -0.688,0 -1.106,0.549 -1.106,1.414 l 0,0 0,3.024 -1.083,0 0,-3.039 c 0,-1.577 0.883,-2.458 2.189,-2.458 l 0,0 c 1.375,0 2.195,0.905 2.195,2.473 l 0,0 0,3.024 -1.081,0 z"
               style="fill:url(#linearGradient27200);stroke:none"
               id="path27206"
               inkscape:connector-curvature="0" /></g></g></g></g></g></svg>